<svg width="4000" height="213" viewBox="0 0 4000 213" fill="none" xmlns="http://www.w3.org/2000/svg">
<path d="M2001 0H1999V213H2001V0Z" fill="rgba(255, 255, 255, 0.7)"/>
<path d="M2178.75 213H2176.62L2107.98 0H2110.11L2178.75 213Z" fill="rgba(255, 255, 255, 0.7)"/>
<path d="M2354.81 213H2352.37L2220.31 0H2222.76L2354.81 213Z" fill="rgba(255, 255, 255, 0.7)"/>
<path d="M2537.86 213H2534.87L2325.42 0H2328.41L2537.86 213Z" fill="rgba(255, 255, 255, 0.7)"/>
<path d="M2720.49 213H2716.92L2437.32 0H2440.89L2720.49 213Z" fill="rgba(255, 255, 255, 0.7)"/>
<path d="M2904.03 213H2899.77L2545.07 0H2549.33L2904.03 213Z" fill="rgba(255, 255, 255, 0.7)"/>
<path d="M3054.41 213H3049.84L2663.17 0H2667.73L3054.41 213Z" fill="rgba(255, 255, 255, 0.7)"/>
<path d="M3178.78 213H3174.22L2787.54 0H2792.1L3178.78 213Z" fill="rgba(255, 255, 255, 0.7)"/>
<path d="M3296.78 213H3292.22L2905.54 0H2910.1L3296.78 213Z" fill="rgba(255, 255, 255, 0.7)"/>
<path d="M3414.78 213H3410.22L3023.54 0H3028.11L3414.78 213Z" fill="rgba(255, 255, 255, 0.7)"/>
<path d="M3532.78 213H3528.22L3141.54 0H3146.11L3532.78 213Z" fill="rgba(255, 255, 255, 0.7)"/>
<path d="M3650.78 213H3646.22L3259.54 0H3264.11L3650.78 213Z" fill="rgba(255, 255, 255, 0.7)"/>
<path d="M3768.78 213H3764.22L3377.54 0H3382.11L3768.78 213Z" fill="rgba(255, 255, 255, 0.7)"/>
<path d="M3886.78 213H3882.22L3495.54 0H3500.11L3886.78 213Z" fill="rgba(255, 255, 255, 0.7)"/>
<path d="M4000 210.367V212.88L3613.54 0H3618.11L4000 210.367Z" fill="rgba(255, 255, 255, 0.7)"/>
<path d="M4000 145.366V147.879L3731.54 0H3736.11L4000 145.366Z" fill="rgba(255, 255, 255, 0.7)"/>
<path d="M4000 80.3657V82.8789L3849.54 0H3854.11L4000 80.3657Z" fill="rgba(255, 255, 255, 0.7)"/>
<path d="M4000 15.3652V17.8787L3967.54 0H3972.11L4000 15.3652Z" fill="rgba(255, 255, 255, 0.7)"/>
<path d="M1824.24 213L1892.88 0H1890.75L1822.11 213H1824.24Z" fill="rgba(255, 255, 255, 0.7)"/>
<path d="M1648.49 213L1780.54 0H1778.1L1646.05 213H1648.49Z" fill="rgba(255, 255, 255, 0.7)"/>
<path d="M1465.98 213L1675.44 0H1672.45L1462.99 213H1465.98Z" fill="rgba(255, 255, 255, 0.7)"/>
<path d="M1283.94 213L1563.54 0H1559.96L1280.36 213H1283.94Z" fill="rgba(255, 255, 255, 0.7)"/>
<path d="M1101.09 213L1455.78 0H1451.52L1096.83 213H1101.09Z" fill="rgba(255, 255, 255, 0.7)"/>
<path d="M951.011 213L1337.69 0H1333.12L946.449 213H951.011Z" fill="rgba(255, 255, 255, 0.7)"/>
<path d="M826.639 213L1213.31 0H1208.75L822.076 213H826.639Z" fill="rgba(255, 255, 255, 0.7)"/>
<path d="M708.638 213L1095.31 0H1090.75L704.076 213H708.638Z" fill="rgba(255, 255, 255, 0.7)"/>
<path d="M590.638 213L977.313 0H972.751L586.076 213H590.638Z" fill="rgba(255, 255, 255, 0.7)"/>
<path d="M472.639 213L859.313 0H854.751L468.076 213H472.639Z" fill="rgba(255, 255, 255, 0.7)"/>
<path d="M354.638 213L741.313 0H736.75L350.076 213H354.638Z" fill="rgba(255, 255, 255, 0.7)"/>
<path d="M236.638 213L623.313 0H618.75L232.076 213H236.638Z" fill="rgba(255, 255, 255, 0.7)"/>
<path d="M118.638 213L505.312 0H500.75L114.075 213H118.638Z" fill="rgba(255, 255, 255, 0.7)"/>
<path d="M0.637695 213L387.312 0H382.75L0 210.838V213H0.637695Z" fill="rgba(255, 255, 255, 0.7)"/>
<path d="M0 148.351L269.312 0H264.75L0 145.838V148.351Z" fill="rgba(255, 255, 255, 0.7)"/>
<path d="M0 83.3506L151.312 0H146.75L0 80.8372V83.3506Z" fill="rgba(255, 255, 255, 0.7)"/>
<path d="M0 18.3501L33.3125 0H28.7495L0 15.8369V18.3501Z" fill="rgba(255, 255, 255, 0.7)"/>
</svg>
